<svg width="272" height="191" viewBox="0 0 272 191" fill="none" xmlns="http://www.w3.org/2000/svg">
<g clip-path="url(#clip0_73_19)">
<path d="M272 78.4456H271.541V64.3864C271.541 63.3178 271.352 62.2597 270.986 61.2724C270.62 60.2852 270.084 59.3882 269.407 58.6326C268.731 57.877 267.928 57.2776 267.044 56.8687C266.161 56.4597 265.214 56.2493 264.257 56.2493H237.596C236.639 56.2493 235.692 56.4597 234.808 56.8687C233.925 57.2776 233.122 57.877 232.446 58.6326C231.769 59.3882 231.233 60.2852 230.867 61.2724C230.501 62.2597 230.312 63.3178 230.312 64.3864V141.516C230.312 142.585 230.501 143.643 230.867 144.63C231.233 145.617 231.769 146.515 232.446 147.27C233.122 148.026 233.925 148.625 234.808 149.034C235.692 149.443 236.639 149.653 237.596 149.653H264.257C265.214 149.653 266.161 149.443 267.044 149.034C267.928 148.625 268.731 148.026 269.407 147.27C270.084 146.515 270.62 145.617 270.986 144.63C271.352 143.643 271.541 142.585 271.541 141.516V88.4532H272V78.4456Z" fill="#3F3D56"/>
<path d="M269.991 64.8645V141.882C269.991 143.494 269.417 145.04 268.397 146.18C267.377 147.319 265.993 147.96 264.551 147.96H237.761C237.047 147.96 236.34 147.802 235.68 147.497C235.02 147.191 234.42 146.744 233.915 146.179C233.41 145.615 233.01 144.945 232.737 144.208C232.464 143.47 232.323 142.68 232.323 141.882V64.8645C232.324 63.2533 232.896 61.7082 233.916 60.5689C234.936 59.4297 236.319 58.7897 237.761 58.7896H241.011C240.852 59.228 240.791 59.7034 240.835 60.174C240.878 60.6447 241.024 61.0962 241.261 61.4888C241.497 61.8815 241.816 62.2033 242.19 62.426C242.563 62.6487 242.98 62.7654 243.404 62.7659H258.678C259.102 62.7668 259.52 62.651 259.894 62.4287C260.268 62.2064 260.588 61.8844 260.825 61.4914C261.061 61.0983 261.207 60.6461 261.25 60.1749C261.293 59.7037 261.231 59.2279 261.071 58.7896H264.551C265.993 58.7896 267.376 59.4295 268.397 60.5687C269.417 61.7079 269.99 63.253 269.991 64.8645Z" fill="#D0CDE1"/>
<path d="M264.919 98.2208H233.777V107.609H264.919V98.2208Z" fill="#7269EF"/>
<path d="M266.155 105.952H236.001C235.805 105.952 235.616 105.865 235.477 105.71C235.338 105.554 235.26 105.344 235.26 105.124V96.8402C235.26 96.6205 235.338 96.41 235.477 96.2547C235.616 96.0994 235.805 96.012 236.001 96.0118H266.155C266.351 96.012 266.54 96.0994 266.679 96.2547C266.818 96.41 266.896 96.6205 266.896 96.8402V105.124C266.896 105.344 266.818 105.554 266.679 105.71C266.54 105.865 266.351 105.952 266.155 105.952ZM236.001 96.564C235.936 96.5641 235.873 96.5932 235.827 96.645C235.78 96.6968 235.754 96.767 235.754 96.8402V105.124C235.754 105.197 235.78 105.267 235.827 105.319C235.873 105.371 235.936 105.4 236.001 105.4H266.155C266.22 105.4 266.283 105.371 266.329 105.319C266.376 105.267 266.402 105.197 266.402 105.124V96.8402C266.402 96.767 266.376 96.6968 266.329 96.645C266.283 96.5932 266.22 96.5641 266.155 96.564H236.001Z" fill="#3F3D56"/>
<path d="M241.192 103.467H237.237V104.02H241.192V103.467Z" fill="#3F3D56"/>
<path d="M246.629 103.467H242.675V104.02H246.629V103.467Z" fill="#3F3D56"/>
<path d="M252.067 103.467H248.112V104.02H252.067V103.467Z" fill="#3F3D56"/>
<path d="M257.504 103.467H253.55V104.02H257.504V103.467Z" fill="#3F3D56"/>
<path d="M262.942 103.467H258.987V104.02H262.942V103.467Z" fill="#3F3D56"/>
<path opacity="0.1" d="M269.991 134.051V141.882C269.991 143.494 269.417 145.04 268.397 146.18C267.377 147.319 265.993 147.96 264.551 147.96H237.761C237.047 147.96 236.34 147.802 235.68 147.497C235.02 147.191 234.42 146.744 233.915 146.179C233.41 145.615 233.01 144.945 232.737 144.208C232.464 143.47 232.323 142.68 232.323 141.882V105.859L269.991 134.051Z" fill="black"/>
<path d="M141.586 126.938H24.6792V191H141.586V126.938Z" fill="#D0CDE1"/>
<path opacity="0.1" d="M111.865 191H25.1735C25.0425 191 24.917 190.941 24.8244 190.838C24.7318 190.734 24.6796 190.594 24.6792 190.448V127.49C24.6796 127.344 24.7318 127.204 24.8244 127.1C24.917 126.997 25.0425 126.939 25.1735 126.938H26.2709L111.865 191Z" fill="black"/>
<path d="M259.976 135.498H78.8074V136.05H259.976V135.498Z" fill="#3F3D56"/>
<path d="M136.085 1.19226H84.3072V0H60.8293V1.19226H8.8383C8.37836 1.19226 7.92293 1.29347 7.498 1.4901C7.07308 1.68674 6.68698 1.97496 6.36175 2.3383C6.03653 2.70165 5.77855 3.13299 5.60254 3.60772C5.42653 4.08245 5.33594 4.59127 5.33594 5.10511V84.3142C5.33594 85.3519 5.70493 86.3472 6.36175 87.081C7.01857 87.8148 7.90941 88.2271 8.8383 88.2271H136.085C137.014 88.2271 137.904 87.8148 138.561 87.081C139.218 86.3472 139.587 85.3519 139.587 84.3142V5.10511C139.587 4.59127 139.497 4.08245 139.321 3.60772C139.145 3.13299 138.887 2.70165 138.561 2.3383C138.236 1.97496 137.85 1.68674 137.425 1.4901C137 1.29347 136.545 1.19226 136.085 1.19226V1.19226Z" fill="#3F3D56"/>
<path d="M134.89 8.10626H10.0325V86.7974H134.89V8.10626Z" fill="#D0CDE1"/>
<path d="M72.3548 5.96127C73.0621 5.96127 73.6355 5.32072 73.6355 4.53056C73.6355 3.7404 73.0621 3.09985 72.3548 3.09985C71.6476 3.09985 71.0742 3.7404 71.0742 4.53056C71.0742 5.32072 71.6476 5.96127 72.3548 5.96127Z" fill="#7269EF"/>
<path d="M47.1708 37.4725H44.2049C44.0083 37.4723 43.8198 37.3849 43.6808 37.2296C43.5418 37.0743 43.4636 36.8638 43.4634 36.6442V33.3306C43.4636 33.111 43.5418 32.9004 43.6808 32.7451C43.8198 32.5898 44.0083 32.5025 44.2049 32.5022H47.1708C47.3674 32.5025 47.5558 32.5898 47.6949 32.7451C47.8339 32.9004 47.9121 33.111 47.9123 33.3306V36.6442C47.9121 36.8638 47.8339 37.0743 47.6949 37.2296C47.5558 37.3849 47.3674 37.4723 47.1708 37.4725V37.4725ZM44.2049 33.0545C44.1393 33.0546 44.0765 33.0837 44.0302 33.1355C43.9839 33.1872 43.9578 33.2574 43.9577 33.3306V36.6442C43.9578 36.7174 43.9839 36.7875 44.0302 36.8393C44.0765 36.8911 44.1393 36.9202 44.2049 36.9203H47.1708C47.2363 36.9202 47.2991 36.8911 47.3455 36.8393C47.3918 36.7875 47.4179 36.7174 47.4179 36.6442V33.3306C47.4179 33.2574 47.3918 33.1872 47.3455 33.1355C47.2991 33.0837 47.2363 33.0546 47.1708 33.0545H44.2049Z" fill="#3F3D56"/>
<path d="M100.063 36.9203H43.7107V37.4725H100.063V36.9203Z" fill="#3F3D56"/>
<path d="M98.5802 52.1074H85.4807V56.5254H98.5802V52.1074Z" fill="#7269EF"/>
<path d="M99.5689 55.4209H87.458C87.2614 55.4206 87.073 55.3333 86.934 55.178C86.795 55.0227 86.7168 54.8121 86.7166 54.5925V51.2789C86.7168 51.0593 86.795 50.8488 86.934 50.6935C87.073 50.5382 87.2614 50.4508 87.458 50.4506H99.5689C99.7655 50.4508 99.9539 50.5382 100.093 50.6935C100.232 50.8488 100.31 51.0593 100.31 51.2789V54.5925C100.31 54.8121 100.232 55.0227 100.093 55.178C99.9539 55.3333 99.7655 55.4206 99.5689 55.4209V55.4209ZM87.458 51.0028C87.3925 51.0029 87.3297 51.032 87.2834 51.0838C87.237 51.1356 87.211 51.2057 87.2109 51.2789V54.5925C87.211 54.6657 87.237 54.7359 87.2834 54.7876C87.3297 54.8394 87.3925 54.8685 87.458 54.8686H99.5689C99.6344 54.8685 99.6972 54.8394 99.7436 54.7876C99.7899 54.7359 99.816 54.6657 99.816 54.5925V51.2789C99.816 51.2057 99.7899 51.1356 99.7436 51.0838C99.6972 51.032 99.6344 51.0029 99.5689 51.0028H87.458Z" fill="#3F3D56"/>
<path d="M198.68 57.0776H173.964V76.4066H198.68V57.0776Z" fill="#7269EF"/>
<path d="M201.152 74.888H177.424C177.162 74.8876 176.911 74.7712 176.725 74.5641C176.54 74.357 176.436 74.0763 176.436 73.7834V55.559C176.436 55.2661 176.54 54.9854 176.725 54.7783C176.911 54.5712 177.162 54.4547 177.424 54.4544H201.152C201.414 54.4547 201.665 54.5712 201.85 54.7783C202.036 54.9853 202.14 55.2661 202.14 55.559V73.7834C202.14 74.0763 202.036 74.357 201.85 74.5641C201.665 74.7712 201.414 74.8876 201.152 74.888V74.888ZM177.424 55.559V73.7834H201.152L201.152 55.559H177.424Z" fill="#3F3D56"/>
<path d="M198.433 54.8686H197.444C197.444 52.4519 196.585 50.1342 195.055 48.4253C193.526 46.7164 191.451 45.7564 189.288 45.7564C187.125 45.7564 185.05 46.7164 183.521 48.4253C181.991 50.1342 181.132 52.4519 181.132 54.8686H180.143C180.143 52.159 181.107 49.5603 182.822 47.6443C184.537 45.7283 186.863 44.6519 189.288 44.6519C191.713 44.6519 194.039 45.7283 195.754 47.6443C197.469 49.5603 198.433 52.159 198.433 54.8686V54.8686Z" fill="#3F3D56"/>
<path d="M191.76 62.4622C191.76 61.9813 191.648 61.5087 191.435 61.091C191.222 60.6733 190.915 60.325 190.544 60.0807C190.173 59.8364 189.752 59.7044 189.322 59.6979C188.891 59.6914 188.467 59.8105 188.09 60.0435C187.714 60.2765 187.398 60.6153 187.175 61.0264C186.952 61.4375 186.828 61.9065 186.817 62.3872C186.806 62.8679 186.907 63.3435 187.111 63.767C187.315 64.1905 187.614 64.5471 187.98 64.8017V67.7654C187.98 67.9574 188.013 68.1475 188.079 68.3249C188.145 68.5022 188.241 68.6634 188.363 68.7991C188.484 68.9349 188.629 69.0426 188.787 69.116C188.946 69.1895 189.116 69.2273 189.288 69.2273V69.2273C189.635 69.2273 189.968 69.0733 190.213 68.7991C190.459 68.525 190.597 68.1531 190.597 67.7654V64.8017C190.952 64.5542 191.246 64.2095 191.449 63.8002C191.653 63.3909 191.76 62.9304 191.76 62.4622V62.4622Z" fill="#3F3D56"/>
<path d="M74.2348 155.379H70.2803V155.932H74.2348V155.379Z" fill="#3F3D56"/>
<path d="M79.6723 155.379H75.7178V155.932H79.6723V155.379Z" fill="#3F3D56"/>
<path d="M85.1101 155.379H81.1555V155.932H85.1101V155.379Z" fill="#3F3D56"/>
<path d="M90.5473 155.379H86.5928V155.932H90.5473V155.379Z" fill="#3F3D56"/>
<path d="M95.9851 155.379H92.0305V155.932H95.9851V155.379Z" fill="#3F3D56"/>
<path d="M146.776 186.306H30.8583C30.5962 186.306 30.3448 186.189 30.1595 185.982C29.9742 185.775 29.8699 185.494 29.8696 185.201V122.244C29.8699 121.951 29.9742 121.67 30.1595 121.463C30.3448 121.256 30.5962 121.14 30.8583 121.139H146.776C147.038 121.14 147.29 121.256 147.475 121.463C147.66 121.67 147.765 121.951 147.765 122.244V185.201C147.765 185.494 147.66 185.775 147.475 185.982C147.29 186.189 147.038 186.306 146.776 186.306V186.306ZM30.8583 122.244V185.201H146.777L146.776 122.244H30.8583Z" fill="#3F3D56"/>
<path d="M36.0486 131.632C36.8677 131.632 37.5316 130.891 37.5316 129.976C37.5316 129.061 36.8677 128.319 36.0486 128.319C35.2296 128.319 34.5657 129.061 34.5657 129.976C34.5657 130.891 35.2296 131.632 36.0486 131.632Z" fill="#3F3D56"/>
<path d="M41.2391 131.632C42.0581 131.632 42.722 130.891 42.722 129.976C42.722 129.061 42.0581 128.319 41.2391 128.319C40.42 128.319 39.7561 129.061 39.7561 129.976C39.7561 130.891 40.42 131.632 41.2391 131.632Z" fill="#3F3D56"/>
<path d="M46.4295 131.632C47.2485 131.632 47.9125 130.891 47.9125 129.976C47.9125 129.061 47.2485 128.319 46.4295 128.319C45.6105 128.319 44.9465 129.061 44.9465 129.976C44.9465 130.891 45.6105 131.632 46.4295 131.632Z" fill="#3F3D56"/>
<path d="M99.8159 159.245H66.4492C66.2527 159.245 66.0642 159.158 65.9252 159.002C65.7862 158.847 65.708 158.636 65.7078 158.417V149.028C65.708 148.809 65.7862 148.598 65.9252 148.443C66.0642 148.288 66.2527 148.2 66.4492 148.2H99.8159C100.012 148.2 100.201 148.288 100.34 148.443C100.479 148.598 100.557 148.809 100.557 149.028V158.417C100.557 158.636 100.479 158.847 100.34 159.002C100.201 159.158 100.012 159.245 99.8159 159.245V159.245ZM66.4492 148.752C66.3837 148.752 66.3209 148.782 66.2745 148.833C66.2282 148.885 66.2021 148.955 66.2021 149.028V158.417C66.2021 158.49 66.2282 158.56 66.2745 158.612C66.3209 158.664 66.3837 158.693 66.4492 158.693H99.8159C99.8814 158.693 99.9442 158.664 99.9906 158.612C100.037 158.56 100.063 158.49 100.063 158.417V149.028C100.063 148.955 100.037 148.885 99.9906 148.833C99.9442 148.782 99.8814 148.752 99.8159 148.752H66.4492Z" fill="#3F3D56"/>
<path d="M108.219 159.521C110.676 159.521 112.668 157.296 112.668 154.551C112.668 151.806 110.676 149.581 108.219 149.581C105.762 149.581 103.771 151.806 103.771 154.551C103.771 157.296 105.762 159.521 108.219 159.521Z" fill="#7269EF"/>
<path d="M109.702 158.969C108.774 158.969 107.866 158.661 107.093 158.085C106.321 157.508 105.719 156.689 105.364 155.73C105.008 154.772 104.915 153.717 105.097 152.699C105.278 151.681 105.725 150.747 106.382 150.013C107.039 149.279 107.875 148.779 108.786 148.577C109.697 148.375 110.641 148.478 111.499 148.876C112.358 149.273 113.091 149.945 113.607 150.808C114.123 151.671 114.398 152.685 114.398 153.723C114.397 155.114 113.902 156.447 113.021 157.431C112.141 158.414 110.947 158.967 109.702 158.969V158.969ZM109.702 149.028C108.871 149.028 108.059 149.304 107.368 149.82C106.677 150.335 106.139 151.068 105.821 151.926C105.502 152.784 105.419 153.728 105.581 154.638C105.744 155.549 106.144 156.385 106.731 157.042C107.319 157.698 108.068 158.145 108.883 158.327C109.698 158.508 110.543 158.415 111.31 158.059C112.078 157.704 112.734 157.103 113.196 156.331C113.658 155.559 113.904 154.651 113.904 153.723C113.903 152.478 113.46 151.285 112.672 150.405C111.884 149.525 110.816 149.03 109.702 149.028V149.028Z" fill="#3F3D56"/>
<path d="M109.768 155.682L107.375 153.009L108.074 152.228L109.636 153.972L113.994 147.054L114.803 147.69L109.768 155.682Z" fill="#3F3D56"/>
<path opacity="0.1" d="M107.208 86.7974H10.0325V14.0679L107.208 86.7974Z" fill="black"/>
<path d="M143.093 85.3656H130.907V84.3848C130.907 84.3592 130.903 84.334 130.894 84.3104C130.885 84.2868 130.873 84.2653 130.856 84.2473C130.84 84.2292 130.821 84.2149 130.8 84.2051C130.779 84.1953 130.756 84.1903 130.733 84.1903H126.555C126.532 84.1903 126.51 84.1953 126.489 84.2051C126.468 84.2149 126.448 84.2292 126.432 84.2473C126.416 84.2653 126.403 84.2868 126.395 84.3104C126.386 84.334 126.381 84.3592 126.381 84.3848V85.3656H123.77V84.3848C123.77 84.3592 123.766 84.334 123.757 84.3104C123.748 84.2868 123.735 84.2653 123.719 84.2473C123.703 84.2292 123.684 84.2149 123.663 84.2051C123.642 84.1953 123.619 84.1903 123.596 84.1903H119.418C119.395 84.1903 119.373 84.1953 119.352 84.2051C119.33 84.2149 119.311 84.2292 119.295 84.2473C119.279 84.2653 119.266 84.2868 119.257 84.3104C119.249 84.334 119.244 84.3592 119.244 84.3848V85.3656H116.633V84.3848C116.633 84.3592 116.628 84.334 116.62 84.3104C116.611 84.2868 116.598 84.2653 116.582 84.2473C116.566 84.2292 116.547 84.2149 116.525 84.2051C116.504 84.1953 116.482 84.1903 116.459 84.1903H112.281C112.258 84.1903 112.235 84.1953 112.214 84.2051C112.193 84.2149 112.174 84.2292 112.158 84.2473C112.142 84.2653 112.129 84.2868 112.12 84.3104C112.111 84.334 112.107 84.3592 112.107 84.3848V85.3656H109.496V84.3848C109.496 84.3592 109.491 84.334 109.482 84.3104C109.474 84.2868 109.461 84.2653 109.445 84.2473C109.428 84.2292 109.409 84.2149 109.388 84.2051C109.367 84.1953 109.344 84.1903 109.322 84.1903H105.144C105.121 84.1903 105.098 84.1953 105.077 84.2051C105.056 84.2149 105.037 84.2292 105.021 84.2473C105.004 84.2653 104.992 84.2868 104.983 84.3104C104.974 84.334 104.97 84.3592 104.97 84.3848V85.3656H102.358V84.3848C102.358 84.3592 102.354 84.334 102.345 84.3104C102.336 84.2868 102.324 84.2653 102.307 84.2473C102.291 84.2292 102.272 84.2149 102.251 84.2051C102.23 84.1953 102.207 84.1903 102.184 84.1903H98.0064C97.9836 84.1903 97.9609 84.1953 97.9398 84.2051C97.9187 84.2149 97.8995 84.2292 97.8833 84.2473C97.8672 84.2653 97.8543 84.2868 97.8456 84.3104C97.8368 84.334 97.8323 84.3592 97.8323 84.3848V85.3656H95.2212V84.3848C95.2212 84.3592 95.2167 84.334 95.2079 84.3104C95.1992 84.2868 95.1863 84.2653 95.1702 84.2473C95.154 84.2292 95.1348 84.2149 95.1137 84.2051C95.0926 84.1953 95.0699 84.1903 95.0471 84.1903H90.8692C90.8463 84.1903 90.8237 84.1953 90.8026 84.2051C90.7814 84.2149 90.7623 84.2292 90.7461 84.2473C90.7299 84.2653 90.7171 84.2868 90.7084 84.3104C90.6996 84.334 90.6951 84.3592 90.6951 84.3848V85.3656H88.0839V84.3848C88.0839 84.3592 88.0794 84.334 88.0707 84.3104C88.0619 84.2868 88.0491 84.2653 88.0329 84.2473C88.0168 84.2292 87.9976 84.2149 87.9765 84.2051C87.9553 84.1953 87.9327 84.1903 87.9098 84.1903H55.183C55.1602 84.1903 55.1375 84.1953 55.1164 84.2051C55.0953 84.2149 55.0761 84.2292 55.0599 84.2473C55.0438 84.2653 55.0309 84.2868 55.0222 84.3104C55.0134 84.334 55.0089 84.3592 55.0089 84.3848V85.3656H52.3977V84.3848C52.3977 84.3592 52.3932 84.334 52.3845 84.3104C52.3757 84.2868 52.3629 84.2653 52.3468 84.2473C52.3306 84.2292 52.3114 84.2149 52.2903 84.2051C52.2692 84.1953 52.2465 84.1903 52.2237 84.1903H48.0458C48.0229 84.1903 48.0003 84.1953 47.9792 84.2051C47.958 84.2149 47.9388 84.2292 47.9227 84.2473C47.9065 84.2653 47.8937 84.2868 47.8849 84.3104C47.8762 84.334 47.8717 84.3592 47.8717 84.3848V85.3656H45.2605V84.3848C45.2605 84.3592 45.256 84.334 45.2473 84.3104C45.2385 84.2868 45.2257 84.2653 45.2095 84.2473C45.1934 84.2292 45.1742 84.2149 45.1531 84.2051C45.1319 84.1953 45.1093 84.1903 45.0864 84.1903H40.9085C40.8857 84.1903 40.863 84.1953 40.8419 84.2051C40.8208 84.2149 40.8016 84.2292 40.7854 84.2473C40.7693 84.2653 40.7565 84.2868 40.7477 84.3104C40.739 84.334 40.7345 84.3592 40.7345 84.3848V85.3656H38.1233V84.3848C38.1233 84.3592 38.1188 84.334 38.11 84.3104C38.1013 84.2868 38.0885 84.2653 38.0723 84.2473C38.0561 84.2292 38.0369 84.2149 38.0158 84.2051C37.9947 84.1953 37.9721 84.1903 37.9492 84.1903H33.7713C33.7485 84.1903 33.7258 84.1953 33.7047 84.2051C33.6836 84.2149 33.6644 84.2292 33.6482 84.2473C33.6321 84.2653 33.6192 84.2868 33.6105 84.3104C33.6017 84.334 33.5972 84.3592 33.5972 84.3848V85.3656H30.986V84.3848C30.986 84.3592 30.9815 84.334 30.9728 84.3104C30.964 84.2868 30.9512 84.2653 30.9351 84.2473C30.9189 84.2292 30.8997 84.2149 30.8786 84.2051C30.8575 84.1953 30.8348 84.1903 30.812 84.1903H26.6341C26.6112 84.1903 26.5886 84.1953 26.5674 84.2051C26.5463 84.2149 26.5271 84.2292 26.511 84.2473C26.4948 84.2653 26.482 84.2868 26.4732 84.3104C26.4645 84.334 26.46 84.3592 26.46 84.3848V85.3656H23.8488V84.3848C23.8488 84.3592 23.8443 84.334 23.8356 84.3104C23.8268 84.2868 23.814 84.2653 23.7978 84.2473C23.7817 84.2292 23.7625 84.2149 23.7414 84.2051C23.7202 84.1953 23.6976 84.1903 23.6747 84.1903H19.4968C19.474 84.1903 19.4513 84.1953 19.4302 84.2051C19.4091 84.2149 19.3899 84.2292 19.3737 84.2473C19.3576 84.2653 19.3448 84.2868 19.336 84.3104C19.3273 84.334 19.3228 84.3592 19.3228 84.3848V85.3656H16.7116V84.3848C16.7116 84.3592 16.7071 84.334 16.6983 84.3104C16.6896 84.2868 16.6768 84.2653 16.6606 84.2473C16.6444 84.2292 16.6252 84.2149 16.6041 84.2051C16.583 84.1953 16.5604 84.1903 16.5375 84.1903H12.3596C12.3367 84.1903 12.3141 84.1953 12.293 84.2051C12.2719 84.2149 12.2527 84.2292 12.2365 84.2473C12.2203 84.2653 12.2075 84.2868 12.1988 84.3104C12.19 84.334 12.1855 84.3592 12.1855 84.3848V85.3656H4.17789C3.62924 85.3657 3.08597 85.4864 2.57908 85.7209C2.0722 85.9555 1.61163 86.2993 1.22368 86.7328C0.835722 87.1662 0.527981 87.6807 0.318022 88.247C0.108064 88.8133 -3.24575e-07 89.4203 0 90.0332V92.1438C2.62204e-06 93.3817 0.440173 94.5689 1.22368 95.4442C2.00719 96.3196 3.06985 96.8113 4.17789 96.8113H143.093C143.642 96.8113 144.185 96.6906 144.692 96.456C145.199 96.2215 145.659 95.8777 146.047 95.4442C146.435 95.0108 146.743 94.4963 146.953 93.93C147.163 93.3637 147.271 92.7567 147.271 92.1438V90.0332C147.271 89.4203 147.163 88.8133 146.953 88.247C146.743 87.6807 146.435 87.1662 146.047 86.7327C145.659 86.2993 145.199 85.9555 144.692 85.7209C144.185 85.4864 143.642 85.3656 143.093 85.3656V85.3656Z" fill="#3F3D56"/>
<path d="M105.006 60.1151H39.7561C39.5595 60.1148 39.3711 60.0275 39.2321 59.8722C39.0931 59.7169 39.0149 59.5063 39.0146 59.2867V28.9126C39.0149 28.6929 39.0931 28.4824 39.2321 28.3271C39.3711 28.1718 39.5595 28.0844 39.7561 28.0842H105.006C105.203 28.0844 105.391 28.1718 105.53 28.3271C105.67 28.4824 105.748 28.6929 105.748 28.9126V59.2867C105.748 59.5063 105.67 59.7169 105.53 59.8722C105.391 60.0275 105.203 60.1148 105.006 60.1151V60.1151ZM39.7561 28.6364C39.6906 28.6365 39.6278 28.6656 39.5815 28.7174C39.5351 28.7692 39.5091 28.8393 39.509 28.9126V59.2867C39.5091 59.3599 39.5351 59.4301 39.5815 59.4818C39.6278 59.5336 39.6906 59.5627 39.7561 59.5628H105.006C105.072 59.5627 105.135 59.5336 105.181 59.4818C105.227 59.4301 105.254 59.3599 105.254 59.2867V28.9126C105.254 28.8393 105.227 28.7692 105.181 28.7174C105.135 28.6656 105.072 28.6365 105.006 28.6364H39.7561Z" fill="#3F3D56"/>
<path d="M47.1708 45.7564H44.2049C44.0083 45.7561 43.8198 45.6688 43.6808 45.5135C43.5418 45.3582 43.4636 45.1476 43.4634 44.928V41.6145C43.4636 41.3948 43.5418 41.1843 43.6808 41.029C43.8198 40.8737 44.0083 40.7863 44.2049 40.7861H47.1708C47.3674 40.7863 47.5558 40.8737 47.6949 41.029C47.8339 41.1843 47.9121 41.3948 47.9123 41.6145V44.928C47.9121 45.1476 47.8339 45.3582 47.6949 45.5135C47.5558 45.6688 47.3674 45.7561 47.1708 45.7564V45.7564ZM44.2049 41.3383C44.1393 41.3384 44.0765 41.3675 44.0302 41.4193C43.9839 41.4711 43.9578 41.5413 43.9577 41.6145V44.928C43.9578 45.0012 43.9839 45.0714 44.0302 45.1232C44.0765 45.1749 44.1393 45.204 44.2049 45.2041H47.1708C47.2363 45.204 47.2991 45.1749 47.3455 45.1232C47.3918 45.0714 47.4179 45.0012 47.4179 44.928V41.6145C47.4179 41.5413 47.3918 41.4711 47.3455 41.4193C47.2991 41.3675 47.2363 41.3384 47.1708 41.3383H44.2049Z" fill="#3F3D56"/>
<path d="M100.063 45.2041H43.7107V45.7564H100.063V45.2041Z" fill="#3F3D56"/>
<path d="M246.629 74.4738H65.4607V75.026H246.629V74.4738Z" fill="#3F3D56"/>
<path d="M65.4607 78.3395C67.3718 78.3395 68.921 76.6088 68.921 74.4737C68.921 72.3387 67.3718 70.6079 65.4607 70.6079C63.5497 70.6079 62.0005 72.3387 62.0005 74.4737C62.0005 76.6088 63.5497 78.3395 65.4607 78.3395Z" fill="#3F3D56"/>
<path d="M246.629 78.0634C248.131 78.0634 249.348 76.7035 249.348 75.026C249.348 73.3485 248.131 71.9886 246.629 71.9886C245.128 71.9886 243.91 73.3485 243.91 75.026C243.91 76.7035 245.128 78.0634 246.629 78.0634Z" fill="#3F3D56"/>
<path d="M259.976 139.088C261.477 139.088 262.694 137.728 262.694 136.05C262.694 134.373 261.477 133.013 259.976 133.013C258.474 133.013 257.257 134.373 257.257 136.05C257.257 137.728 258.474 139.088 259.976 139.088Z" fill="#3F3D56"/>
<path d="M79.5488 139.088C81.0504 139.088 82.2676 137.728 82.2676 136.05C82.2676 134.373 81.0504 133.013 79.5488 133.013C78.0473 133.013 76.8301 134.373 76.8301 136.05C76.8301 137.728 78.0473 139.088 79.5488 139.088Z" fill="#3F3D56"/>
</g>
<defs>
<clipPath id="clip0_73_19">
<rect width="272" height="191" fill="white"/>
</clipPath>
</defs>
</svg>
