<?xml version="1.0" encoding="UTF-8"?><svg xmlns="http://www.w3.org/2000/svg" xmlns:xlink="http://www.w3.org/1999/xlink" width="375pt" zoomAndPan="magnify" viewBox="0 0 375 374.999991" height="374.999991pt" preserveAspectRatio="xMidYMid meet" version="1.2"><defs><clipPath xml:id="clip1" id="clip1"><path d="M 12.582031 11.183594 L 362.082031 11.183594 L 362.082031 363.683594 L 12.582031 363.683594 Z M 12.582031 11.183594 "/></clipPath></defs><g xml:id="surface1" id="surface1"><g clip-rule="nonzero" clip-path="url(#clip1)"><path style=" stroke:none;fill-rule:nonzero;fill:rgb(44.709778%,41.178894%,93.728638%);fill-opacity:1;" d="M 362.078125 186.097656 C 362.078125 182.871094 361.988281 179.648438 361.808594 176.429688 C 361.628906 173.207031 361.359375 169.996094 361 166.789062 C 360.644531 163.585938 360.199219 160.394531 359.664062 157.210938 C 359.128906 154.03125 358.507812 150.867188 357.800781 147.722656 C 357.089844 144.578125 356.296875 141.453125 355.414062 138.351562 C 354.53125 135.25 353.566406 132.171875 352.511719 129.125 C 351.460938 126.078125 350.324219 123.058594 349.105469 120.074219 C 347.890625 117.089844 346.589844 114.136719 345.207031 111.226562 C 343.824219 108.3125 342.363281 105.4375 340.824219 102.605469 C 339.28125 99.773438 337.664062 96.984375 335.96875 94.242188 C 334.273438 91.5 332.507812 88.804688 330.664062 86.160156 C 328.816406 83.515625 326.902344 80.921875 324.914062 78.382812 C 322.929688 75.84375 320.871094 73.359375 318.75 70.9375 C 316.625 68.511719 314.433594 66.144531 312.179688 63.839844 C 309.921875 61.539062 307.605469 59.296875 305.226562 57.121094 C 302.847656 54.945312 300.410156 52.835938 297.914062 50.796875 C 295.417969 48.757812 292.871094 46.785156 290.265625 44.886719 C 287.660156 42.988281 285.003906 41.160156 282.300781 39.40625 C 279.59375 37.65625 276.839844 35.976562 274.042969 34.378906 C 271.246094 32.777344 268.40625 31.257812 265.523438 29.8125 C 262.640625 28.371094 259.71875 27.007812 256.761719 25.726562 C 253.804688 24.445312 250.8125 23.246094 247.789062 22.132812 C 244.765625 21.015625 241.710938 19.984375 238.628906 19.039062 C 235.550781 18.089844 232.445312 17.230469 229.316406 16.453125 C 226.1875 15.679688 223.039062 14.992188 219.871094 14.390625 C 216.707031 13.792969 213.523438 13.277344 210.328125 12.855469 C 207.132812 12.429688 203.929688 12.09375 200.714844 11.847656 C 197.503906 11.601562 194.285156 11.441406 191.0625 11.375 C 187.839844 11.304688 184.617188 11.324219 181.398438 11.433594 C 178.175781 11.542969 174.960938 11.742188 171.75 12.03125 C 168.539062 12.316406 165.339844 12.695312 162.148438 13.15625 C 158.960938 13.621094 155.785156 14.175781 152.625 14.816406 C 149.46875 15.457031 146.328125 16.183594 143.210938 16.996094 C 140.089844 17.8125 136.996094 18.710938 133.929688 19.699219 C 130.859375 20.683594 127.820312 21.753906 124.8125 22.90625 C 121.800781 24.0625 118.824219 25.296875 115.882812 26.617188 C 112.941406 27.933594 110.039062 29.332031 107.175781 30.8125 C 104.3125 32.292969 101.492188 33.847656 98.710938 35.484375 C 95.933594 37.121094 93.203125 38.832031 90.519531 40.617188 C 87.835938 42.402344 85.207031 44.261719 82.625 46.195312 C 80.042969 48.128906 77.519531 50.128906 75.050781 52.203125 C 72.578125 54.273438 70.167969 56.414062 67.816406 58.621094 C 65.464844 60.824219 63.175781 63.09375 60.949219 65.425781 C 58.726562 67.757812 56.566406 70.152344 54.472656 72.601562 C 52.378906 75.054688 50.351562 77.5625 48.398438 80.125 C 46.445312 82.691406 44.5625 85.308594 42.75 87.976562 C 40.941406 90.644531 39.203125 93.359375 37.542969 96.125 C 35.882812 98.886719 34.300781 101.695312 32.796875 104.546875 C 31.292969 107.402344 29.867188 110.292969 28.523438 113.222656 C 27.179688 116.152344 25.914062 119.121094 24.734375 122.121094 C 23.554688 125.121094 22.457031 128.152344 21.441406 131.214844 C 20.429688 134.273438 19.5 137.363281 18.660156 140.476562 C 17.816406 143.589844 17.058594 146.722656 16.390625 149.875 C 15.722656 153.03125 15.140625 156.203125 14.648438 159.390625 C 14.152344 162.574219 13.746094 165.773438 13.429688 168.984375 C 13.113281 172.191406 12.886719 175.410156 12.746094 178.628906 C 12.605469 181.851562 12.554688 185.074219 12.59375 188.300781 C 12.632812 191.523438 12.761719 194.746094 12.980469 197.964844 C 13.199219 201.183594 13.503906 204.390625 13.898438 207.59375 C 14.292969 210.792969 14.777344 213.980469 15.347656 217.152344 C 15.917969 220.328125 16.574219 223.484375 17.320312 226.621094 C 18.066406 229.757812 18.898438 232.875 19.816406 235.964844 C 20.734375 239.054688 21.734375 242.121094 22.824219 245.15625 C 23.910156 248.191406 25.082031 251.195312 26.332031 254.167969 C 27.929688 257.925781 29.640625 261.605469 31.464844 265.214844 L 29.128906 346.03125 C 29.117188 346.570312 29.15625 347.101562 29.257812 347.632812 C 29.355469 348.160156 29.507812 348.671875 29.71875 349.167969 C 29.925781 349.664062 30.183594 350.132812 30.488281 350.574219 C 30.796875 351.015625 31.148438 351.417969 31.539062 351.785156 C 31.933594 352.152344 32.363281 352.472656 32.824219 352.75 C 33.285156 353.023438 33.769531 353.246094 34.28125 353.421875 C 34.789062 353.59375 35.308594 353.710938 35.84375 353.769531 C 36.378906 353.832031 36.914062 353.835938 37.449219 353.785156 L 116.261719 345.859375 C 117.273438 346.308594 118.28125 346.753906 119.296875 347.183594 C 122.457031 348.519531 125.652344 349.761719 128.882812 350.910156 C 132.113281 352.058594 135.375 353.109375 138.667969 354.0625 C 141.960938 355.019531 145.277344 355.878906 148.621094 356.636719 C 151.964844 357.398438 155.324219 358.058594 158.707031 358.621094 C 162.089844 359.183594 165.484375 359.644531 168.894531 360.003906 C 172.304688 360.367188 175.722656 360.628906 179.144531 360.789062 C 182.570312 360.949219 185.996094 361.011719 189.425781 360.96875 C 192.851562 360.929688 196.277344 360.785156 199.695312 360.542969 C 203.117188 360.300781 206.527344 359.957031 209.925781 359.511719 C 213.324219 359.070312 216.707031 358.527344 220.074219 357.882812 C 223.441406 357.242188 226.789062 356.5 230.113281 355.660156 C 233.4375 354.820312 236.734375 353.882812 240.003906 352.847656 C 243.269531 351.816406 246.507812 350.683594 249.710938 349.460938 C 252.910156 348.234375 256.074219 346.917969 259.199219 345.507812 C 262.324219 344.097656 265.40625 342.59375 268.441406 341.003906 C 271.480469 339.410156 274.464844 337.730469 277.402344 335.960938 C 278.210938 337.988281 279.164062 339.949219 280.265625 341.835938 C 281.363281 343.722656 282.597656 345.515625 283.964844 347.21875 C 285.332031 348.921875 286.820312 350.511719 288.421875 351.992188 C 290.027344 353.472656 291.734375 354.824219 293.542969 356.050781 C 295.347656 357.277344 297.238281 358.363281 299.207031 359.304688 C 301.175781 360.25 303.203125 361.042969 305.292969 361.683594 C 307.378906 362.324219 309.503906 362.808594 311.664062 363.132812 C 313.820312 363.457031 315.992188 363.617188 318.175781 363.617188 C 319.613281 363.617188 321.046875 363.546875 322.480469 363.40625 C 323.910156 363.265625 325.328125 363.054688 326.738281 362.773438 C 328.148438 362.492188 329.539062 362.144531 330.914062 361.726562 C 332.289062 361.308594 333.640625 360.828125 334.96875 360.277344 C 336.296875 359.726562 337.59375 359.113281 338.863281 358.433594 C 340.128906 357.757812 341.363281 357.019531 342.554688 356.21875 C 343.75 355.417969 344.90625 354.5625 346.015625 353.652344 C 347.125 352.738281 348.191406 351.773438 349.207031 350.757812 C 350.222656 349.742188 351.1875 348.675781 352.097656 347.566406 C 353.011719 346.453125 353.863281 345.300781 354.664062 344.105469 C 355.460938 342.910156 356.199219 341.675781 356.878906 340.410156 C 357.554688 339.140625 358.167969 337.84375 358.71875 336.515625 C 359.269531 335.183594 359.753906 333.832031 360.167969 332.457031 C 360.585938 331.082031 360.933594 329.6875 361.214844 328.277344 C 361.496094 326.867188 361.707031 325.445312 361.847656 324.015625 C 361.988281 322.585938 362.058594 321.148438 362.058594 319.710938 L 362.058594 189.671875 C 362.058594 188.484375 362.078125 187.289062 362.078125 186.097656 Z M 187.332031 273.292969 C 139.277344 273.292969 100.183594 234.175781 100.183594 186.097656 C 100.183594 138.015625 139.277344 98.898438 187.332031 98.898438 C 235.386719 98.898438 274.480469 138.015625 274.480469 186.097656 C 274.480469 234.175781 235.386719 273.292969 187.332031 273.292969 Z M 187.332031 273.292969 "/></g></g></svg>