<svg width="246" height="205" viewBox="0 0 246 205" fill="none" xmlns="http://www.w3.org/2000/svg">
<g clip-path="url(#clip0_73_133)">
<path d="M127.221 48.6328H126.092V17.8286C126.092 13.1002 124.206 8.56541 120.848 5.22189C117.491 1.87837 112.937 0 108.189 0H42.6536C37.9054 0 33.3517 1.87837 29.9942 5.22189C26.6367 8.56541 24.7505 13.1002 24.7505 17.8286V186.822C24.7505 191.551 26.6367 196.086 29.9942 199.429C33.3517 202.773 37.9054 204.651 42.6536 204.651H108.189C112.937 204.651 117.491 202.773 120.848 199.429C124.206 196.086 126.092 191.551 126.092 186.822V186.822V70.5596H127.221V48.6328Z" fill="#3F3D56"/>
<path d="M108.911 4.63834H100.356C100.75 5.59881 100.9 6.64088 100.793 7.67275C100.687 8.70461 100.328 9.69461 99.7465 10.5555C99.1655 11.4165 98.3809 12.1219 97.4616 12.6097C96.5424 13.0975 95.5168 13.3527 94.4751 13.3528H56.9309C55.8893 13.3527 54.8637 13.0974 53.9445 12.6096C53.0253 12.1218 52.2407 11.4163 51.6597 10.5554C51.0788 9.69448 50.7194 8.70449 50.6131 7.67264C50.5069 6.6408 50.6571 5.59876 51.0505 4.63834H43.0608C39.5149 4.63834 36.1142 6.04108 33.6069 8.53799C31.0995 11.0349 29.6909 14.4214 29.6909 17.9526V186.699C29.6911 190.23 31.0998 193.617 33.6071 196.113C36.1144 198.61 39.515 200.013 43.0608 200.013H108.911C110.667 200.013 112.405 199.669 114.028 199C115.65 198.331 117.124 197.35 118.365 196.114C119.607 194.878 120.592 193.41 121.264 191.795C121.936 190.179 122.282 188.448 122.282 186.699V186.699V17.9526C122.282 14.4214 120.873 11.0349 118.366 8.53799C115.859 6.04108 112.458 4.63834 108.912 4.63834H108.911Z" fill="white"/>
<path d="M115.908 129.391H36.0311C35.6389 129.39 35.2628 129.235 34.9855 128.959C34.7081 128.683 34.5522 128.308 34.5518 127.918V91.3937C34.5522 91.0031 34.7081 90.6286 34.9855 90.3524C35.2628 90.0762 35.6389 89.9209 36.0311 89.9205H115.908C116.3 89.9209 116.676 90.0762 116.953 90.3524C117.23 90.6286 117.386 91.0031 117.387 91.3937V127.918C117.386 128.308 117.23 128.683 116.953 128.959C116.676 129.235 116.3 129.39 115.908 129.391ZM36.0311 90.5099C35.7958 90.5101 35.5702 90.6033 35.4038 90.769C35.2374 90.9347 35.1439 91.1594 35.1436 91.3937V127.918C35.1439 128.152 35.2374 128.377 35.4038 128.543C35.5702 128.708 35.7958 128.801 36.0311 128.802H115.908C116.143 128.801 116.368 128.708 116.535 128.543C116.701 128.377 116.795 128.152 116.795 127.918V91.3937C116.795 91.1594 116.701 90.9347 116.535 90.769C116.368 90.6033 116.143 90.5101 115.908 90.5099H36.0311Z" fill="#E6E6E6"/>
<path d="M115.315 81.9591H79.8153C79.423 81.9587 79.047 81.8034 78.7697 81.5272C78.4923 81.251 78.3363 80.8765 78.3359 80.4859V60.7542C78.3363 60.3636 78.4923 59.9891 78.7697 59.7129C79.047 59.4368 79.423 59.2814 79.8153 59.281H115.315C115.707 59.2814 116.083 59.4368 116.36 59.7129C116.638 59.9891 116.794 60.3636 116.794 60.7542V80.4856C116.794 80.8763 116.638 81.2508 116.36 81.5271C116.083 81.8033 115.707 81.9587 115.315 81.9591V81.9591ZM79.814 59.8707C79.5787 59.8709 79.3532 59.9641 79.1868 60.1298C79.0204 60.2955 78.9268 60.5202 78.9266 60.7545V80.4859C78.9268 80.7203 79.0204 80.9449 79.1868 81.1106C79.3532 81.2763 79.5787 81.3695 79.814 81.3697H115.315C115.55 81.3695 115.776 81.2763 115.942 81.1106C116.108 80.9449 116.202 80.7203 116.202 80.4859V60.7542C116.202 60.5199 116.108 60.2952 115.942 60.1295C115.776 59.9638 115.55 59.8706 115.315 59.8704L79.814 59.8707Z" fill="#E6E6E6"/>
<path d="M71.5318 177.117H36.0311C35.6389 177.117 35.2628 176.961 34.9855 176.685C34.7081 176.409 34.5522 176.035 34.5518 175.644V138.825C34.5522 138.435 34.7083 138.06 34.9856 137.784C35.2629 137.508 35.6389 137.353 36.0311 137.352H71.5318C71.924 137.353 72.3 137.508 72.5773 137.784C72.8546 138.06 73.0106 138.435 73.0111 138.825V175.644C73.0107 176.035 72.8547 176.409 72.5774 176.686C72.3001 176.962 71.924 177.117 71.5318 177.117V177.117ZM36.0311 137.942C35.7958 137.942 35.5702 138.035 35.4038 138.201C35.2374 138.366 35.1439 138.591 35.1436 138.825V175.644C35.1439 175.879 35.2374 176.103 35.4038 176.269C35.5702 176.435 35.7958 176.528 36.0311 176.528H71.5318C71.7671 176.528 71.9927 176.435 72.1591 176.269C72.3255 176.103 72.419 175.879 72.4193 175.644V138.825C72.419 138.591 72.3255 138.366 72.1591 138.201C71.9927 138.035 71.7671 137.942 71.5318 137.942H36.0311Z" fill="#E6E6E6"/>
<path d="M115.315 177.117H79.8153C79.423 177.117 79.047 176.961 78.7697 176.685C78.4923 176.409 78.3363 176.035 78.3359 175.644V138.825C78.3364 138.435 78.4924 138.06 78.7698 137.784C79.0471 137.508 79.4231 137.353 79.8153 137.352H115.315C115.707 137.353 116.083 137.508 116.36 137.784C116.638 138.061 116.794 138.435 116.794 138.826V175.644C116.794 176.035 116.638 176.409 116.36 176.686C116.083 176.962 115.707 177.117 115.315 177.117V177.117ZM79.8153 137.942C79.58 137.942 79.3544 138.035 79.188 138.201C79.0216 138.366 78.928 138.591 78.9278 138.825V175.644C78.928 175.879 79.0216 176.103 79.188 176.269C79.3544 176.435 79.58 176.528 79.8153 176.528H115.315C115.55 176.528 115.776 176.435 115.942 176.269C116.108 176.103 116.202 175.879 116.202 175.644V138.825C116.202 138.591 116.108 138.366 115.942 138.201C115.776 138.035 115.55 137.942 115.315 137.942H79.8153Z" fill="#E6E6E6"/>
<path d="M181.377 202.433L127.371 148.652C126.129 147.415 125.591 145.946 126.167 145.369L140.178 131.417C140.757 130.844 142.231 131.38 143.474 132.616L197.48 186.397C198.722 187.634 199.26 189.103 198.684 189.68L184.673 203.632C184.094 204.206 182.62 203.67 181.377 202.433Z" fill="white"/>
<path opacity="0.997" d="M143.26 154.734C146.752 154.734 149.582 151.916 149.582 148.439C149.582 144.963 146.752 142.144 143.26 142.144C139.769 142.144 136.939 144.963 136.939 148.439C136.939 151.916 139.769 154.734 143.26 154.734Z" fill="#7269EF"/>
<path d="M181.377 202.433L127.371 148.652C126.129 147.415 125.591 145.946 126.167 145.369L140.178 131.417C140.757 130.844 142.231 131.38 143.474 132.616L197.48 186.397C198.722 187.634 199.26 189.103 198.684 189.68L184.673 203.632C184.094 204.206 182.62 203.67 181.377 202.433ZM143.055 133.033C142.31 132.291 141.425 131.969 141.078 132.313L127.067 146.266C126.721 146.611 127.045 147.492 127.79 148.235L181.795 202.016C182.541 202.759 183.426 203.08 183.773 202.736L197.784 188.784C198.13 188.439 197.806 187.557 197.061 186.814L143.055 133.033Z" fill="#E6E6E6"/>
<path d="M154.733 154.207C154.545 154.019 154.289 153.914 154.023 153.914C153.756 153.914 153.501 154.019 153.313 154.207C153.124 154.394 153.019 154.649 153.019 154.914C153.019 155.179 153.124 155.433 153.313 155.621L187.236 189.404C187.425 189.591 187.68 189.697 187.947 189.697C188.213 189.697 188.468 189.591 188.657 189.404C188.845 189.216 188.951 188.962 188.951 188.697C188.951 188.431 188.845 188.177 188.657 187.989L154.733 154.207Z" fill="#7269EF"/>
<path d="M150.472 158.45C150.379 158.357 150.268 158.283 150.146 158.233C150.025 158.183 149.894 158.157 149.762 158.157C149.63 158.157 149.5 158.183 149.378 158.233C149.256 158.283 149.145 158.357 149.052 158.45C148.959 158.543 148.885 158.653 148.834 158.774C148.784 158.895 148.758 159.026 148.758 159.157C148.758 159.288 148.784 159.418 148.834 159.54C148.885 159.661 148.959 159.771 149.052 159.864L182.976 193.647C183.164 193.834 183.419 193.94 183.686 193.94C183.952 193.94 184.208 193.834 184.396 193.647C184.584 193.459 184.69 193.205 184.69 192.939C184.69 192.674 184.584 192.42 184.396 192.232L150.472 158.45Z" fill="#7269EF"/>
<path d="M71.5004 81.9628H38.1978L46.0338 68.4444C46.1743 68.2021 46.3763 68.0009 46.6196 67.861C46.8629 67.721 47.1389 67.6474 47.4199 67.6474C47.7008 67.6474 47.9768 67.721 48.2201 67.861C48.4635 68.0009 48.6655 68.2021 48.8059 68.4444L52.1539 74.2193L57.8475 64.3994C58.0234 64.0961 58.2763 63.8441 58.5809 63.6689C58.8855 63.4938 59.2311 63.4016 59.5828 63.4016C59.9346 63.4016 60.2801 63.4938 60.5847 63.6689C60.8894 63.8441 61.1423 64.0961 61.3181 64.3994L71.5004 81.9628ZM39.2223 81.3737H70.4743L60.8043 64.6957C60.6804 64.4819 60.5022 64.3043 60.2876 64.1809C60.073 64.0575 59.8295 63.9925 59.5816 63.9925C59.3337 63.9925 59.0902 64.0575 58.8756 64.1809C58.661 64.3043 58.4828 64.4819 58.3589 64.6957L52.1549 75.3977L48.2943 68.7391C48.2058 68.5864 48.0785 68.4596 47.9251 68.3714C47.7718 68.2832 47.5979 68.2368 47.4208 68.2368C47.2437 68.2368 47.0698 68.2832 46.9165 68.3714C46.7631 68.4596 46.6358 68.5864 46.5473 68.7391L39.2223 81.3737Z" fill="#E6E6E6"/>
<path d="M114.101 81.9628H80.7983L88.6344 68.4444C88.7748 68.2021 88.9769 68.0009 89.2202 67.861C89.4635 67.721 89.7395 67.6474 90.0205 67.6474C90.3014 67.6474 90.5774 67.721 90.8207 67.861C91.064 68.0009 91.2661 68.2021 91.4065 68.4444L94.7542 74.2193L100.448 64.3994C100.624 64.0961 100.877 63.8441 101.181 63.6689C101.486 63.4938 101.832 63.4016 102.183 63.4016C102.535 63.4016 102.881 63.4938 103.185 63.6689C103.49 63.8441 103.743 64.0961 103.919 64.3994L114.101 81.9628ZM81.8229 81.3737H113.075L103.405 64.6957C103.281 64.4819 103.103 64.3043 102.888 64.1809C102.674 64.0575 102.43 63.9925 102.182 63.9925C101.934 63.9925 101.691 64.0575 101.476 64.1809C101.262 64.3043 101.083 64.4819 100.959 64.6957L94.7542 75.3977L90.8936 68.7391C90.8051 68.5864 90.6778 68.4596 90.5245 68.3714C90.3711 68.2832 90.1972 68.2368 90.0201 68.2368C89.8431 68.2368 89.6691 68.2832 89.5158 68.3714C89.3625 68.4596 89.2352 68.5864 89.1467 68.7391L81.8229 81.3737Z" fill="#E6E6E6"/>
<path d="M71.5318 81.9591H36.0311C35.6389 81.9587 35.2628 81.8034 34.9855 81.5272C34.7081 81.251 34.5522 80.8765 34.5518 80.4859V60.7542C34.5522 60.3636 34.7081 59.9891 34.9855 59.7129C35.2628 59.4368 35.6389 59.2814 36.0311 59.281H71.5318C71.924 59.2814 72.3001 59.4368 72.5774 59.7129C72.8547 59.9891 73.0107 60.3636 73.0111 60.7542V80.4856C73.0107 80.8762 72.8547 81.2507 72.5774 81.5269C72.3001 81.8031 71.924 81.9584 71.5318 81.9588V81.9591ZM36.0311 59.8707C35.7958 59.8709 35.5702 59.9641 35.4038 60.1298C35.2374 60.2955 35.1439 60.5202 35.1436 60.7545V80.4859C35.1439 80.7203 35.2374 80.9449 35.4038 81.1106C35.5702 81.2763 35.7958 81.3695 36.0311 81.3697H71.5318C71.7671 81.3695 71.9927 81.2763 72.1591 81.1106C72.3255 80.9449 72.419 80.7203 72.4193 80.4859V60.7542C72.419 60.5199 72.3255 60.2952 72.1591 60.1295C71.9927 59.9638 71.7671 59.8706 71.5318 59.8704L36.0311 59.8707Z" fill="#E6E6E6"/>
<path d="M43.596 144.945C43.3297 144.945 43.0743 145.051 42.8859 145.238C42.6976 145.426 42.5918 145.68 42.5918 145.945C42.5918 146.211 42.6976 146.465 42.8859 146.653C43.0743 146.84 43.3297 146.946 43.596 146.946H63.9676C64.234 146.946 64.4894 146.84 64.6777 146.653C64.8661 146.465 64.9719 146.211 64.9719 145.945C64.9719 145.68 64.8661 145.426 64.6777 145.238C64.4894 145.051 64.234 144.945 63.9676 144.945H43.596Z" fill="#E6E6E6"/>
<path d="M43.596 150.837C43.3297 150.837 43.0743 150.943 42.8859 151.13C42.6976 151.318 42.5918 151.572 42.5918 151.838C42.5918 152.103 42.6976 152.357 42.8859 152.545C43.0743 152.732 43.3297 152.838 43.596 152.838H63.9676C64.234 152.838 64.4894 152.732 64.6777 152.545C64.8661 152.357 64.9719 152.103 64.9719 151.838C64.9719 151.572 64.8661 151.318 64.6777 151.13C64.4894 150.943 64.234 150.837 63.9676 150.837H43.596Z" fill="#E6E6E6"/>
<path d="M53.7815 169.524C52.5314 169.524 51.3093 169.155 50.2698 168.463C49.2303 167.772 48.4201 166.789 47.9416 165.638C47.4632 164.488 47.338 163.223 47.5819 162.001C47.8258 160.78 48.4278 159.659 49.3118 158.778C50.1957 157.898 51.322 157.299 52.5482 157.056C53.7743 156.813 55.0453 156.937 56.2003 157.414C57.3553 157.89 58.3426 158.697 59.0372 159.732C59.7318 160.767 60.1026 161.984 60.1026 163.229V163.229C60.1008 164.898 59.4342 166.498 58.2492 167.678C57.0642 168.858 55.4574 169.522 53.7815 169.524V169.524ZM53.7815 157.523C52.6483 157.523 51.5406 157.858 50.5984 158.485C49.6562 159.112 48.9218 160.003 48.4881 161.046C48.0545 162.088 47.941 163.235 48.1621 164.342C48.3832 165.449 48.9288 166.466 49.7301 167.264C50.5314 168.062 51.5523 168.605 52.6638 168.825C53.7752 169.045 54.9272 168.932 55.9741 168.5C57.0211 168.069 57.9159 167.337 58.5455 166.399C59.175 165.461 59.5111 164.358 59.5111 163.229C59.5091 161.716 58.9048 160.266 57.8307 159.197C56.7566 158.127 55.3005 157.526 53.7815 157.524V157.523Z" fill="#E6E6E6"/>
<path d="M107.753 169.525C107.884 169.525 108.015 169.499 108.137 169.449C108.259 169.398 108.369 169.325 108.463 169.232C108.556 169.139 108.63 169.029 108.68 168.907C108.731 168.786 108.757 168.656 108.757 168.525C108.757 168.393 108.731 168.263 108.68 168.142C108.63 168.021 108.556 167.91 108.463 167.818C108.369 167.725 108.259 167.651 108.137 167.601C108.015 167.55 107.884 167.525 107.753 167.525H87.3788C87.1124 167.525 86.857 167.63 86.6687 167.818C86.4803 168.005 86.3745 168.259 86.3745 168.525C86.3745 168.79 86.4803 169.044 86.6687 169.232C86.857 169.419 87.1124 169.525 87.3788 169.525H107.753Z" fill="#E6E6E6"/>
<path d="M107.753 163.632C107.884 163.632 108.015 163.606 108.137 163.556C108.259 163.506 108.369 163.432 108.463 163.339C108.556 163.246 108.63 163.136 108.68 163.015C108.731 162.893 108.757 162.763 108.757 162.632C108.757 162.501 108.731 162.371 108.68 162.249C108.63 162.128 108.556 162.018 108.463 161.925C108.369 161.832 108.259 161.758 108.137 161.708C108.015 161.658 107.884 161.632 107.753 161.632H87.3788C87.1124 161.632 86.857 161.737 86.6687 161.925C86.4803 162.112 86.3745 162.367 86.3745 162.632C86.3745 162.897 86.4803 163.152 86.6687 163.339C86.857 163.527 87.1124 163.632 87.3788 163.632H107.753Z" fill="#E6E6E6"/>
<path d="M209.126 200.089H204.152L201.786 180.983H209.127L209.126 200.089Z" fill="#A0616A"/>
<path d="M199.133 198.673H210.191V204.688H194.559V203.229C194.559 202.02 195.041 200.862 195.898 200.007C196.756 199.153 197.92 198.673 199.133 198.673V198.673Z" fill="#2F2E41"/>
<path d="M229.006 200.089H224.032L221.666 180.983H229.007L229.006 200.089Z" fill="#A0616A"/>
<path d="M219.014 198.673H230.072V204.688H214.439V203.229C214.439 202.02 214.921 200.862 215.779 200.007C216.637 199.153 217.801 198.673 219.014 198.673Z" fill="#2F2E41"/>
<path d="M200.46 145.011C200.866 144.632 201.183 144.169 201.39 143.655C201.596 143.14 201.687 142.587 201.656 142.034C201.624 141.481 201.472 140.942 201.209 140.454C200.945 139.966 200.578 139.541 200.132 139.21L202.263 130.817L197.457 128.283L194.615 140.179C194.105 140.961 193.902 141.903 194.043 142.825C194.185 143.747 194.661 144.585 195.381 145.181C196.102 145.777 197.017 146.089 197.953 146.057C198.889 146.026 199.781 145.653 200.46 145.011H200.46Z" fill="#A0616A"/>
<path d="M230.775 130.35L230.369 158.633L229.964 195.804L221.039 194.996L216.575 143.683L210.895 194.996H201.68L200.751 143.278L203.998 131.966L230.775 130.35Z" fill="#2F2E41"/>
<path d="M203.107 132.139L202.976 132.08L208.063 97.4305L205.477 86.9576C205.342 86.4127 205.413 85.8375 205.676 85.3412C205.939 84.8449 206.376 84.4618 206.903 84.2647L211.556 82.5271L213.2 78.0252L226.17 79.417L226.489 82.9362C227.894 83.3852 239.468 87.2236 238.67 91.5966C237.881 95.9136 233.228 109.495 232.991 110.184L232.177 129.662L232.077 129.712C231.956 129.773 223.016 134.149 213.304 134.149C209.885 134.148 206.367 133.605 203.107 132.139Z" fill="#CCCCCC"/>
<path d="M194.447 135.776L198.536 109.715C198.56 109.562 200.979 94.3051 201.782 89.5113C202.611 84.5621 206.457 84.5049 206.496 84.5049H208.613L211.09 95.6026L206.211 117.87L201.71 136.323L194.447 135.776Z" fill="#CCCCCC"/>
<path d="M220.97 133.204C220.996 132.651 221.144 132.11 221.403 131.62C221.662 131.129 222.026 130.702 222.468 130.366C222.911 130.031 223.422 129.797 223.966 129.68C224.51 129.563 225.072 129.566 225.615 129.689L230.646 122.628L235.7 124.626L228.455 134.498C228.187 135.391 227.6 136.156 226.803 136.648C226.007 137.139 225.058 137.322 224.135 137.162C223.212 137.003 222.38 136.511 221.797 135.782C221.213 135.052 220.919 134.134 220.97 133.203V133.204Z" fill="#A0616A"/>
<path d="M226.489 127.132L235.434 112.15L231.79 102.472L236.753 89.2907L236.938 89.3691C237.058 89.4202 239.878 90.6736 240.296 95.162L246 113.014L230.777 132.681L226.489 127.132Z" fill="#CCCCCC"/>
<path d="M219.178 75.7987C224.335 75.7987 228.516 71.6351 228.516 66.4991C228.516 61.3631 224.335 57.1995 219.178 57.1995C214.02 57.1995 209.839 61.3631 209.839 66.4991C209.839 71.6351 214.02 75.7987 219.178 75.7987Z" fill="#A0616A"/>
<path d="M212.91 61.9685C213.877 63.1078 215.512 63.4291 217.021 63.5598C220.086 63.8275 224.543 63.3933 227.538 62.7047C227.753 64.7679 227.169 66.9927 228.389 68.6902C228.961 66.6353 229.294 64.5217 229.381 62.3911C229.418 61.4773 229.403 60.532 229.03 59.6932C228.658 58.8544 227.844 58.1423 226.908 58.135C227.604 57.6095 228.419 57.2627 229.281 57.1251L226.316 55.6412L227.077 54.8627L221.709 54.5356L223.264 53.552C220.923 53.2319 218.555 53.1577 216.198 53.3308C215.104 53.4109 213.96 53.5643 213.074 54.1956C212.188 54.8269 211.675 56.0813 212.226 57.0079C211.537 57.1206 210.888 57.4065 210.341 57.8386C209.795 58.2707 209.368 58.8347 209.101 59.4772C208.706 60.4748 208.742 61.5829 208.864 62.646C209.066 64.3462 209.463 66.0178 210.046 67.6283" fill="#2F2E41"/>
<path d="M212.91 204.659H142.285C141.564 204.657 140.978 203.466 140.978 201.994V166.298C140.978 164.826 141.564 163.635 142.285 163.633H212.91C213.632 163.635 214.217 164.826 214.218 166.298V201.994C214.217 203.465 213.631 204.657 212.91 204.659Z" fill="white"/>
<path d="M97.5657 144.945C98.8159 144.945 100.038 145.315 101.078 146.006C102.117 146.698 102.927 147.681 103.406 148.831C103.884 149.981 104.009 151.247 103.765 152.468C103.521 153.689 102.919 154.811 102.035 155.691C101.151 156.572 100.025 157.171 98.7989 157.414C97.5727 157.657 96.3018 157.532 95.1467 157.056C93.9917 156.579 93.0045 155.773 92.3099 154.737C91.6154 153.702 91.2446 152.485 91.2446 151.24V151.24C91.2466 149.571 91.9132 147.971 93.0982 146.791C94.2832 145.611 95.8899 144.947 97.5657 144.945V144.945ZM97.5657 156.946C98.6989 156.946 99.8065 156.611 100.749 155.984C101.691 155.357 102.425 154.466 102.858 153.423C103.292 152.38 103.405 151.233 103.184 150.126C102.963 149.02 102.417 148.003 101.616 147.205C100.815 146.407 99.7936 145.864 98.6822 145.644C97.5708 145.424 96.4189 145.537 95.372 145.969C94.3251 146.401 93.4303 147.132 92.8008 148.07C92.1713 149.009 91.8353 150.112 91.8353 151.24V151.24C91.837 152.753 92.4413 154.203 93.5154 155.273C94.5895 156.342 96.0458 156.944 97.5648 156.946H97.5657Z" fill="#E6E6E6"/>
<path d="M164.998 183.916C168.409 183.916 171.174 181.162 171.174 177.766C171.174 174.369 168.409 171.616 164.998 171.616C161.587 171.616 158.822 174.369 158.822 177.766C158.822 181.162 161.587 183.916 164.998 183.916Z" fill="#3F3D56"/>
<path d="M184.365 196.718H154.069C154.031 196.718 153.993 196.715 153.956 196.708L168.285 171.993C168.372 171.839 168.499 171.711 168.652 171.622C168.806 171.532 168.98 171.485 169.158 171.485C169.336 171.485 169.51 171.532 169.663 171.622C169.817 171.711 169.944 171.839 170.031 171.993L179.647 188.579L180.108 189.373L184.365 196.718Z" fill="#7269EF"/>
<path d="M201.233 196.718H175.029L180.106 189.373L180.472 188.844L187.088 179.273C187.205 179.126 187.352 179.006 187.519 178.92C187.686 178.833 187.869 178.783 188.056 178.772C188.244 178.761 188.432 178.789 188.608 178.855C188.784 178.921 188.944 179.023 189.077 179.155C189.111 179.192 189.143 179.231 189.172 179.273L201.233 196.718Z" fill="#7269EF"/>
<path d="M212.91 204.659H142.285C141.564 204.657 140.978 203.466 140.978 201.994V166.298C140.978 164.826 141.564 163.635 142.285 163.633H212.91C213.632 163.635 214.217 164.826 214.218 166.298V201.994C214.217 203.465 213.631 204.657 212.91 204.659ZM142.285 164.699C141.852 164.699 141.501 165.415 141.501 166.298V201.994C141.501 202.877 141.852 203.592 142.285 203.593H212.91C213.343 203.593 213.694 202.877 213.695 201.994V166.298C213.695 165.415 213.343 164.699 212.91 164.699H142.285Z" fill="#E6E6E6"/>
<path d="M240.306 204.388H0V205H240.306V204.388Z" fill="#E6E6E6"/>
<path d="M115.908 51.3199H36.0311C35.2146 51.3199 34.553 50.9408 34.5518 50.4735V29.4886C34.5518 29.0213 35.2143 28.6427 36.0311 28.6421H115.908C116.724 28.6421 117.386 29.0213 117.387 29.4886V50.4738C117.386 50.9408 116.724 51.3193 115.908 51.3199ZM36.0311 28.9806C35.5413 28.9806 35.1442 29.2079 35.1436 29.4883V50.4735C35.1436 50.7538 35.5413 50.9809 36.0311 50.9812H115.908C116.397 50.9812 116.794 50.7538 116.795 50.4735V29.4886C116.795 29.2083 116.397 28.9812 115.908 28.9809L36.0311 28.9806Z" fill="#E6E6E6"/>
</g>
<defs>
<clipPath id="clip0_73_133">
<rect width="246" height="205" fill="white"/>
</clipPath>
</defs>
</svg>
